<svg width="15" height="20" viewBox="0 0 15 20" fill="none" xmlns="http://www.w3.org/2000/svg">
<path d="M7.33325 0C3.28967 0 0 3.2493 0 7.24321C0 12.1998 6.56254 19.4763 6.84195 19.7837C7.10439 20.0724 7.56259 20.0719 7.82455 19.7837C8.10396 19.4763 14.6665 12.1998 14.6665 7.24321C14.6664 3.2493 11.3768 0 7.33325 0ZM7.33325 10.8875C5.29883 10.8875 3.64375 9.25267 3.64375 7.24321C3.64375 5.23376 5.29887 3.59899 7.33325 3.59899C9.36763 3.59899 11.0227 5.2338 11.0227 7.24325C11.0227 9.25271 9.36763 10.8875 7.33325 10.8875Z" fill="#00850B"/>
</svg>
