<svg width="18" height="18" viewBox="0 0 18 18" fill="none" xmlns="http://www.w3.org/2000/svg">
<g clip-path="url(#clip0_1_61)">
<path d="M15.5092 12.528C14.4218 11.5979 13.3183 11.0346 12.2442 11.9632L11.6029 12.5245C11.1337 12.9319 10.2613 14.8355 6.88815 10.9552C3.51574 7.07986 5.52261 6.47647 5.99254 6.07257L6.63738 5.51061C7.70579 4.57988 7.30259 3.40821 6.53202 2.20213L6.067 1.47159C5.29291 0.268312 4.44999 -0.521932 3.37877 0.407395L2.79996 0.913151C2.32651 1.25805 1.00312 2.37914 0.682104 4.50894C0.295763 7.06441 1.51449 9.99077 4.30669 13.2016C7.09537 16.4139 9.82575 18.0274 12.4121 17.9993C14.5616 17.9761 15.8597 16.8227 16.2657 16.4033L16.8466 15.8969C17.915 14.9683 17.2512 14.0228 16.1632 13.0906L15.5092 12.528Z" fill="#00850B"/>
</g>
<defs>
<clipPath id="clip0_1_61">
<rect width="18" height="18" fill="white"/>
</clipPath>
</defs>
</svg>
