<svg width="100" height="100" viewBox="0 0 100 100" fill="none" xmlns="http://www.w3.org/2000/svg">
<g opacity="0.6" clip-path="url(#clip0_1_138)">
<path d="M100 50C100 36.7392 94.7322 24.0215 85.3553 14.6447C75.9785 5.26784 63.2608 1.00116e-06 50 0C36.7392 -1.00116e-06 24.0215 5.26784 14.6447 14.6447C5.26785 24.0215 2.00233e-06 36.7392 0 50L50 50H100Z" fill="#ADC9E4"/>
<path d="M100 97C100 83.7392 94.7322 71.0215 85.3553 61.6447C75.9785 52.2678 63.2608 47 50 47C36.7392 47 24.0215 52.2678 14.6447 61.6447C5.26785 71.0215 2.00233e-06 83.7392 0 97L50 97H100Z" fill="#ADC9E4"/>
</g>
<defs>
<clipPath id="clip0_1_138">
<rect width="100" height="100" fill="white"/>
</clipPath>
</defs>
</svg>
