<svg width="115" height="80" viewBox="0 0 115 80" fill="none" xmlns="http://www.w3.org/2000/svg">
<g opacity="0.6" clip-path="url(#clip0_1_151)">
<path fill-rule="evenodd" clip-rule="evenodd" d="M67.4939 10.9467C75.1955 18.2375 80 28.5577 80 40C80 51.4423 75.1955 61.7625 67.4939 69.0533C54.5578 65.7208 45 53.9766 45 40C45 26.0234 54.5578 14.2792 67.4939 10.9467ZM57.5 4.02117C44.1788 10.5126 35 24.1844 35 40C35 55.8156 44.1788 69.4874 57.5 75.9788C52.214 78.5547 46.2758 80 40 80C17.9086 80 0 62.0914 0 40C0 17.9086 17.9086 0 40 0C46.2758 0 52.214 1.44528 57.5 4.02117ZM57.5 4.02117C61.1835 5.81616 64.5503 8.16017 67.4939 10.9467C69.8929 10.3287 72.4081 10 75 10C91.5685 10 105 23.4315 105 40C105 56.5685 91.5685 70 75 70C72.4081 70 69.8929 69.6713 67.4939 69.0533C64.5503 71.8398 61.1835 74.1838 57.5 75.9788C62.786 78.5547 68.7242 80 75 80C97.0914 80 115 62.0914 115 40C115 17.9086 97.0914 0 75 0C68.7242 0 62.786 1.44528 57.5 4.02117Z" fill="#ADC9E4"/>
</g>
<defs>
<clipPath id="clip0_1_151">
<rect width="115" height="80" fill="white"/>
</clipPath>
</defs>
</svg>
