<svg width="100" height="97" viewBox="0 0 100 97" fill="none" xmlns="http://www.w3.org/2000/svg">
<g opacity="0.6" clip-path="url(#clip0_1_158)">
<path d="M100 0C100 13.2608 94.7322 25.9785 85.3553 35.3553C75.9785 44.7322 63.2608 50 50 50C36.7392 50 24.0215 44.7322 14.6447 35.3553C5.26785 25.9785 2.00233e-06 13.2608 0 7.62939e-06L50 0H100Z" fill="#ADC9E4"/>
<path d="M100 97C100 83.7392 94.7322 71.0215 85.3553 61.6447C75.9785 52.2678 63.2608 47 50 47C36.7392 47 24.0215 52.2678 14.6447 61.6447C5.26785 71.0215 2.00233e-06 83.7392 0 97L50 97H100Z" fill="#ADC9E4"/>
</g>
<defs>
<clipPath id="clip0_1_158">
<rect width="100" height="97" fill="white"/>
</clipPath>
</defs>
</svg>
