<svg width="103" height="15" viewBox="0 0 103 15" fill="none" xmlns="http://www.w3.org/2000/svg">
<path d="M2.384 9.374V7.178H5.12C5.468 7.178 5.786 7.106 6.074 6.962C6.362 6.818 6.59 6.608 6.758 6.332C6.926 6.056 7.01 5.72 7.01 5.324C7.01 4.94 6.926 4.61 6.758 4.334C6.59 4.058 6.362 3.848 6.074 3.704C5.786 3.56 5.468 3.488 5.12 3.488H2.384V1.292H5.534C6.338 1.292 7.064 1.454 7.712 1.778C8.36 2.102 8.87 2.57 9.242 3.182C9.626 3.782 9.818 4.496 9.818 5.324C9.818 6.152 9.626 6.872 9.242 7.484C8.87 8.084 8.36 8.552 7.712 8.888C7.064 9.212 6.338 9.374 5.534 9.374H2.384ZM0.224 14V1.292H3.05V14H0.224ZM15.2256 14.198C14.2776 14.198 13.4316 14.006 12.6876 13.622C11.9556 13.226 11.3796 12.68 10.9596 11.984C10.5396 11.288 10.3296 10.502 10.3296 9.626C10.3296 8.75 10.5336 7.97 10.9416 7.286C11.3616 6.59 11.9256 6.044 12.6336 5.648C13.3416 5.252 14.1396 5.054 15.0276 5.054C15.8916 5.054 16.6536 5.24 17.3136 5.612C17.9736 5.984 18.4896 6.5 18.8616 7.16C19.2456 7.82 19.4376 8.576 19.4376 9.428C19.4376 9.584 19.4256 9.752 19.4016 9.932C19.3896 10.1 19.3596 10.298 19.3116 10.526L11.7696 10.544V8.654L18.1416 8.636L16.9536 9.428C16.9416 8.924 16.8636 8.51 16.7196 8.186C16.5756 7.85 16.3596 7.598 16.0716 7.43C15.7956 7.25 15.4536 7.16 15.0456 7.16C14.6136 7.16 14.2356 7.262 13.9116 7.466C13.5996 7.658 13.3536 7.934 13.1736 8.294C13.0056 8.654 12.9216 9.092 12.9216 9.608C12.9216 10.124 13.0116 10.568 13.1916 10.94C13.3836 11.3 13.6476 11.582 13.9836 11.786C14.3316 11.978 14.7396 12.074 15.2076 12.074C15.6396 12.074 16.0296 12.002 16.3776 11.858C16.7256 11.702 17.0316 11.474 17.2956 11.174L18.8076 12.686C18.3756 13.19 17.8536 13.568 17.2416 13.82C16.6296 14.072 15.9576 14.198 15.2256 14.198ZM21.8156 14V1.634H24.5696V14H21.8156ZM19.8356 7.592V5.252H26.5496V7.592H19.8356ZM34.6108 14L30.5248 1.292H33.3328L36.3208 11.066H35.2228L38.1388 1.292H40.3528L43.2688 11.066H42.1888L45.1588 1.292H47.9488L43.8628 14H41.6488L38.7148 4.226H39.7588L36.8248 14H34.6108ZM52.4209 14.198C51.4729 14.198 50.6269 14.006 49.8829 13.622C49.1509 13.226 48.5749 12.68 48.1549 11.984C47.7349 11.288 47.5249 10.502 47.5249 9.626C47.5249 8.75 47.7289 7.97 48.1369 7.286C48.5569 6.59 49.1209 6.044 49.8289 5.648C50.5369 5.252 51.3349 5.054 52.2229 5.054C53.0869 5.054 53.8489 5.24 54.5089 5.612C55.1689 5.984 55.6849 6.5 56.0569 7.16C56.4409 7.82 56.6329 8.576 56.6329 9.428C56.6329 9.584 56.6209 9.752 56.5969 9.932C56.5849 10.1 56.5549 10.298 56.5069 10.526L48.9649 10.544V8.654L55.3369 8.636L54.1489 9.428C54.1369 8.924 54.0589 8.51 53.9149 8.186C53.7709 7.85 53.5549 7.598 53.2669 7.43C52.9909 7.25 52.6489 7.16 52.2409 7.16C51.8089 7.16 51.4309 7.262 51.1069 7.466C50.7949 7.658 50.5489 7.934 50.3689 8.294C50.2009 8.654 50.1169 9.092 50.1169 9.608C50.1169 10.124 50.2069 10.568 50.3869 10.94C50.5789 11.3 50.8429 11.582 51.1789 11.786C51.5269 11.978 51.9349 12.074 52.4029 12.074C52.8349 12.074 53.2249 12.002 53.5729 11.858C53.9209 11.702 54.2269 11.474 54.4909 11.174L56.0029 12.686C55.5709 13.19 55.0489 13.568 54.4369 13.82C53.8249 14.072 53.1529 14.198 52.4209 14.198ZM57.9622 14V0.932H60.7162V14H57.9622ZM62.6556 14V0.932H65.4096V14H62.6556ZM73.127 14V9.014C73.127 8.558 72.983 8.192 72.695 7.916C72.419 7.628 72.065 7.484 71.633 7.484C71.333 7.484 71.069 7.55 70.841 7.682C70.613 7.802 70.433 7.982 70.301 8.222C70.169 8.45 70.103 8.714 70.103 9.014L69.041 8.492C69.041 7.808 69.191 7.208 69.491 6.692C69.791 6.176 70.205 5.78 70.733 5.504C71.273 5.216 71.879 5.072 72.551 5.072C73.199 5.072 73.769 5.228 74.261 5.54C74.765 5.84 75.161 6.242 75.449 6.746C75.737 7.25 75.881 7.802 75.881 8.402V14H73.127ZM67.349 14V5.252H70.103V14H67.349ZM81.9697 14.198C81.0217 14.198 80.1757 14.006 79.4317 13.622C78.6997 13.226 78.1237 12.68 77.7037 11.984C77.2837 11.288 77.0737 10.502 77.0737 9.626C77.0737 8.75 77.2777 7.97 77.6857 7.286C78.1057 6.59 78.6697 6.044 79.3777 5.648C80.0857 5.252 80.8837 5.054 81.7717 5.054C82.6357 5.054 83.3977 5.24 84.0577 5.612C84.7177 5.984 85.2337 6.5 85.6057 7.16C85.9897 7.82 86.1817 8.576 86.1817 9.428C86.1817 9.584 86.1697 9.752 86.1457 9.932C86.1337 10.1 86.1037 10.298 86.0557 10.526L78.5137 10.544V8.654L84.8857 8.636L83.6977 9.428C83.6857 8.924 83.6077 8.51 83.4637 8.186C83.3197 7.85 83.1037 7.598 82.8157 7.43C82.5397 7.25 82.1977 7.16 81.7897 7.16C81.3577 7.16 80.9797 7.262 80.6557 7.466C80.3437 7.658 80.0977 7.934 79.9177 8.294C79.7497 8.654 79.6657 9.092 79.6657 9.608C79.6657 10.124 79.7557 10.568 79.9357 10.94C80.1277 11.3 80.3917 11.582 80.7277 11.786C81.0757 11.978 81.4837 12.074 81.9517 12.074C82.3837 12.074 82.7737 12.002 83.1217 11.858C83.4697 11.702 83.7757 11.474 84.0397 11.174L85.5517 12.686C85.1197 13.19 84.5977 13.568 83.9857 13.82C83.3737 14.072 82.7017 14.198 81.9697 14.198ZM90.6971 14.216C90.1811 14.216 89.6711 14.15 89.1671 14.018C88.6751 13.886 88.2131 13.7 87.7811 13.46C87.3611 13.208 87.0011 12.92 86.7011 12.596L88.2671 11.012C88.5551 11.324 88.8971 11.57 89.2931 11.75C89.6891 11.918 90.1211 12.002 90.5891 12.002C90.9131 12.002 91.1591 11.954 91.3271 11.858C91.5071 11.762 91.5971 11.63 91.5971 11.462C91.5971 11.246 91.4891 11.084 91.2731 10.976C91.0691 10.856 90.8051 10.754 90.4811 10.67C90.1571 10.574 89.8151 10.472 89.4551 10.364C89.0951 10.256 88.7531 10.106 88.4291 9.914C88.1051 9.722 87.8411 9.458 87.6371 9.122C87.4331 8.774 87.3311 8.336 87.3311 7.808C87.3311 7.244 87.4751 6.758 87.7631 6.35C88.0511 5.93 88.4591 5.6 88.9871 5.36C89.5151 5.12 90.1331 5 90.8411 5C91.5851 5 92.2691 5.132 92.8931 5.396C93.5291 5.648 94.0451 6.026 94.4411 6.53L92.8751 8.114C92.5991 7.79 92.2871 7.562 91.9391 7.43C91.6031 7.298 91.2731 7.232 90.9491 7.232C90.6371 7.232 90.4031 7.28 90.2471 7.376C90.0911 7.46 90.0131 7.586 90.0131 7.754C90.0131 7.934 90.1151 8.078 90.3191 8.186C90.5231 8.294 90.7871 8.39 91.1111 8.474C91.4351 8.558 91.7771 8.66 92.1371 8.78C92.4971 8.9 92.8391 9.062 93.1631 9.266C93.4871 9.47 93.7511 9.746 93.9551 10.094C94.1591 10.43 94.2611 10.874 94.2611 11.426C94.2611 12.278 93.9371 12.956 93.2891 13.46C92.6531 13.964 91.7891 14.216 90.6971 14.216ZM98.9412 14.216C98.4252 14.216 97.9152 14.15 97.4112 14.018C96.9192 13.886 96.4572 13.7 96.0252 13.46C95.6052 13.208 95.2452 12.92 94.9452 12.596L96.5112 11.012C96.7992 11.324 97.1412 11.57 97.5372 11.75C97.9332 11.918 98.3652 12.002 98.8332 12.002C99.1572 12.002 99.4032 11.954 99.5712 11.858C99.7512 11.762 99.8412 11.63 99.8412 11.462C99.8412 11.246 99.7332 11.084 99.5172 10.976C99.3132 10.856 99.0492 10.754 98.7252 10.67C98.4012 10.574 98.0592 10.472 97.6992 10.364C97.3392 10.256 96.9972 10.106 96.6732 9.914C96.3492 9.722 96.0852 9.458 95.8812 9.122C95.6772 8.774 95.5752 8.336 95.5752 7.808C95.5752 7.244 95.7192 6.758 96.0072 6.35C96.2952 5.93 96.7032 5.6 97.2312 5.36C97.7592 5.12 98.3772 5 99.0852 5C99.8292 5 100.513 5.132 101.137 5.396C101.773 5.648 102.289 6.026 102.685 6.53L101.119 8.114C100.843 7.79 100.531 7.562 100.183 7.43C99.8472 7.298 99.5172 7.232 99.1932 7.232C98.8812 7.232 98.6472 7.28 98.4912 7.376C98.3352 7.46 98.2572 7.586 98.2572 7.754C98.2572 7.934 98.3592 8.078 98.5632 8.186C98.7672 8.294 99.0312 8.39 99.3552 8.474C99.6792 8.558 100.021 8.66 100.381 8.78C100.741 8.9 101.083 9.062 101.407 9.266C101.731 9.47 101.995 9.746 102.199 10.094C102.403 10.43 102.505 10.874 102.505 11.426C102.505 12.278 102.181 12.956 101.533 13.46C100.897 13.964 100.033 14.216 98.9412 14.216Z" fill="#202330"/>
</svg>
