<svg width="193" height="30" viewBox="0 0 193 30" fill="none" xmlns="http://www.w3.org/2000/svg">
<path d="M3.384 16.374V14.178H6.12C6.468 14.178 6.786 14.106 7.074 13.962C7.362 13.818 7.59 13.608 7.758 13.332C7.926 13.056 8.01 12.72 8.01 12.324C8.01 11.94 7.926 11.61 7.758 11.334C7.59 11.058 7.362 10.848 7.074 10.704C6.786 10.56 6.468 10.488 6.12 10.488H3.384V8.292H6.534C7.338 8.292 8.064 8.454 8.712 8.778C9.36 9.102 9.87 9.57 10.242 10.182C10.626 10.782 10.818 11.496 10.818 12.324C10.818 13.152 10.626 13.872 10.242 14.484C9.87 15.084 9.36 15.552 8.712 15.888C8.064 16.212 7.338 16.374 6.534 16.374H3.384ZM1.224 21V8.292H4.05V21H1.224ZM16.2256 21.198C15.2776 21.198 14.4316 21.006 13.6876 20.622C12.9556 20.226 12.3796 19.68 11.9596 18.984C11.5396 18.288 11.3296 17.502 11.3296 16.626C11.3296 15.75 11.5336 14.97 11.9416 14.286C12.3616 13.59 12.9256 13.044 13.6336 12.648C14.3416 12.252 15.1396 12.054 16.0276 12.054C16.8916 12.054 17.6536 12.24 18.3136 12.612C18.9736 12.984 19.4896 13.5 19.8616 14.16C20.2456 14.82 20.4376 15.576 20.4376 16.428C20.4376 16.584 20.4256 16.752 20.4016 16.932C20.3896 17.1 20.3596 17.298 20.3116 17.526L12.7696 17.544V15.654L19.1416 15.636L17.9536 16.428C17.9416 15.924 17.8636 15.51 17.7196 15.186C17.5756 14.85 17.3596 14.598 17.0716 14.43C16.7956 14.25 16.4536 14.16 16.0456 14.16C15.6136 14.16 15.2356 14.262 14.9116 14.466C14.5996 14.658 14.3536 14.934 14.1736 15.294C14.0056 15.654 13.9216 16.092 13.9216 16.608C13.9216 17.124 14.0116 17.568 14.1916 17.94C14.3836 18.3 14.6476 18.582 14.9836 18.786C15.3316 18.978 15.7396 19.074 16.2076 19.074C16.6396 19.074 17.0296 19.002 17.3776 18.858C17.7256 18.702 18.0316 18.474 18.2956 18.174L19.8076 19.686C19.3756 20.19 18.8536 20.568 18.2416 20.82C17.6296 21.072 16.9576 21.198 16.2256 21.198ZM22.8156 21V8.634H25.5696V21H22.8156ZM20.8356 14.592V12.252H27.5496V14.592H20.8356ZM35.6108 21L31.5248 8.292H34.3328L37.3208 18.066H36.2228L39.1388 8.292H41.3528L44.2688 18.066H43.1888L46.1588 8.292H48.9488L44.8628 21H42.6488L39.7148 11.226H40.7588L37.8248 21H35.6108ZM53.4209 21.198C52.4729 21.198 51.6269 21.006 50.8829 20.622C50.1509 20.226 49.5749 19.68 49.1549 18.984C48.7349 18.288 48.5249 17.502 48.5249 16.626C48.5249 15.75 48.7289 14.97 49.1369 14.286C49.5569 13.59 50.1209 13.044 50.8289 12.648C51.5369 12.252 52.3349 12.054 53.2229 12.054C54.0869 12.054 54.8489 12.24 55.5089 12.612C56.1689 12.984 56.6849 13.5 57.0569 14.16C57.4409 14.82 57.6329 15.576 57.6329 16.428C57.6329 16.584 57.6209 16.752 57.5969 16.932C57.5849 17.1 57.5549 17.298 57.5069 17.526L49.9649 17.544V15.654L56.3369 15.636L55.1489 16.428C55.1369 15.924 55.0589 15.51 54.9149 15.186C54.7709 14.85 54.5549 14.598 54.2669 14.43C53.9909 14.25 53.6489 14.16 53.2409 14.16C52.8089 14.16 52.4309 14.262 52.1069 14.466C51.7949 14.658 51.5489 14.934 51.3689 15.294C51.2009 15.654 51.1169 16.092 51.1169 16.608C51.1169 17.124 51.2069 17.568 51.3869 17.94C51.5789 18.3 51.8429 18.582 52.1789 18.786C52.5269 18.978 52.9349 19.074 53.4029 19.074C53.8349 19.074 54.2249 19.002 54.5729 18.858C54.9209 18.702 55.2269 18.474 55.4909 18.174L57.0029 19.686C56.5709 20.19 56.0489 20.568 55.4369 20.82C54.8249 21.072 54.1529 21.198 53.4209 21.198ZM58.9622 21V7.932H61.7162V21H58.9622ZM63.6556 21V7.932H66.4096V21H63.6556ZM74.127 21V16.014C74.127 15.558 73.983 15.192 73.695 14.916C73.419 14.628 73.065 14.484 72.633 14.484C72.333 14.484 72.069 14.55 71.841 14.682C71.613 14.802 71.433 14.982 71.301 15.222C71.169 15.45 71.103 15.714 71.103 16.014L70.041 15.492C70.041 14.808 70.191 14.208 70.491 13.692C70.791 13.176 71.205 12.78 71.733 12.504C72.273 12.216 72.879 12.072 73.551 12.072C74.199 12.072 74.769 12.228 75.261 12.54C75.765 12.84 76.161 13.242 76.449 13.746C76.737 14.25 76.881 14.802 76.881 15.402V21H74.127ZM68.349 21V12.252H71.103V21H68.349ZM82.9697 21.198C82.0217 21.198 81.1757 21.006 80.4317 20.622C79.6997 20.226 79.1237 19.68 78.7037 18.984C78.2837 18.288 78.0737 17.502 78.0737 16.626C78.0737 15.75 78.2777 14.97 78.6857 14.286C79.1057 13.59 79.6697 13.044 80.3777 12.648C81.0857 12.252 81.8837 12.054 82.7717 12.054C83.6357 12.054 84.3977 12.24 85.0577 12.612C85.7177 12.984 86.2337 13.5 86.6057 14.16C86.9897 14.82 87.1817 15.576 87.1817 16.428C87.1817 16.584 87.1697 16.752 87.1457 16.932C87.1337 17.1 87.1037 17.298 87.0557 17.526L79.5137 17.544V15.654L85.8857 15.636L84.6977 16.428C84.6857 15.924 84.6077 15.51 84.4637 15.186C84.3197 14.85 84.1037 14.598 83.8157 14.43C83.5397 14.25 83.1977 14.16 82.7897 14.16C82.3577 14.16 81.9797 14.262 81.6557 14.466C81.3437 14.658 81.0977 14.934 80.9177 15.294C80.7497 15.654 80.6657 16.092 80.6657 16.608C80.6657 17.124 80.7557 17.568 80.9357 17.94C81.1277 18.3 81.3917 18.582 81.7277 18.786C82.0757 18.978 82.4837 19.074 82.9517 19.074C83.3837 19.074 83.7737 19.002 84.1217 18.858C84.4697 18.702 84.7757 18.474 85.0397 18.174L86.5517 19.686C86.1197 20.19 85.5977 20.568 84.9857 20.82C84.3737 21.072 83.7017 21.198 82.9697 21.198ZM91.6971 21.216C91.1811 21.216 90.6711 21.15 90.1671 21.018C89.6751 20.886 89.2131 20.7 88.7811 20.46C88.3611 20.208 88.0011 19.92 87.7011 19.596L89.2671 18.012C89.5551 18.324 89.8971 18.57 90.2931 18.75C90.6891 18.918 91.1211 19.002 91.5891 19.002C91.9131 19.002 92.1591 18.954 92.3271 18.858C92.5071 18.762 92.5971 18.63 92.5971 18.462C92.5971 18.246 92.4891 18.084 92.2731 17.976C92.0691 17.856 91.8051 17.754 91.4811 17.67C91.1571 17.574 90.8151 17.472 90.4551 17.364C90.0951 17.256 89.7531 17.106 89.4291 16.914C89.1051 16.722 88.8411 16.458 88.6371 16.122C88.4331 15.774 88.3311 15.336 88.3311 14.808C88.3311 14.244 88.4751 13.758 88.7631 13.35C89.0511 12.93 89.4591 12.6 89.9871 12.36C90.5151 12.12 91.1331 12 91.8411 12C92.5851 12 93.2691 12.132 93.8931 12.396C94.5291 12.648 95.0451 13.026 95.4411 13.53L93.8751 15.114C93.5991 14.79 93.2871 14.562 92.9391 14.43C92.6031 14.298 92.2731 14.232 91.9491 14.232C91.6371 14.232 91.4031 14.28 91.2471 14.376C91.0911 14.46 91.0131 14.586 91.0131 14.754C91.0131 14.934 91.1151 15.078 91.3191 15.186C91.5231 15.294 91.7871 15.39 92.1111 15.474C92.4351 15.558 92.7771 15.66 93.1371 15.78C93.4971 15.9 93.8391 16.062 94.1631 16.266C94.4871 16.47 94.7511 16.746 94.9551 17.094C95.1591 17.43 95.2611 17.874 95.2611 18.426C95.2611 19.278 94.9371 19.956 94.2891 20.46C93.6531 20.964 92.7891 21.216 91.6971 21.216ZM99.9412 21.216C99.4252 21.216 98.9152 21.15 98.4112 21.018C97.9192 20.886 97.4572 20.7 97.0252 20.46C96.6052 20.208 96.2452 19.92 95.9452 19.596L97.5112 18.012C97.7992 18.324 98.1412 18.57 98.5372 18.75C98.9332 18.918 99.3652 19.002 99.8332 19.002C100.157 19.002 100.403 18.954 100.571 18.858C100.751 18.762 100.841 18.63 100.841 18.462C100.841 18.246 100.733 18.084 100.517 17.976C100.313 17.856 100.049 17.754 99.7252 17.67C99.4012 17.574 99.0592 17.472 98.6992 17.364C98.3392 17.256 97.9972 17.106 97.6732 16.914C97.3492 16.722 97.0852 16.458 96.8812 16.122C96.6772 15.774 96.5752 15.336 96.5752 14.808C96.5752 14.244 96.7192 13.758 97.0072 13.35C97.2952 12.93 97.7032 12.6 98.2312 12.36C98.7592 12.12 99.3772 12 100.085 12C100.829 12 101.513 12.132 102.137 12.396C102.773 12.648 103.289 13.026 103.685 13.53L102.119 15.114C101.843 14.79 101.531 14.562 101.183 14.43C100.847 14.298 100.517 14.232 100.193 14.232C99.8812 14.232 99.6472 14.28 99.4912 14.376C99.3352 14.46 99.2572 14.586 99.2572 14.754C99.2572 14.934 99.3592 15.078 99.5632 15.186C99.7672 15.294 100.031 15.39 100.355 15.474C100.679 15.558 101.021 15.66 101.381 15.78C101.741 15.9 102.083 16.062 102.407 16.266C102.731 16.47 102.995 16.746 103.199 17.094C103.403 17.43 103.505 17.874 103.505 18.426C103.505 19.278 103.181 19.956 102.533 20.46C101.897 20.964 101.033 21.216 99.9412 21.216Z" fill="#202330"/>
<path opacity="0.8" d="M126.562 9.36364L130.199 19.6193H130.301L133.938 9.36364H135.051L130.818 21H129.682L125.449 9.36364H126.562ZM139.551 21.1818C138.737 21.1818 138.032 20.9924 137.438 20.6136C136.843 20.2311 136.383 19.7027 136.057 19.0284C135.735 18.3504 135.574 17.5701 135.574 16.6875C135.574 15.8087 135.735 15.0284 136.057 14.3466C136.383 13.661 136.831 13.125 137.403 12.7386C137.979 12.3485 138.644 12.1534 139.398 12.1534C139.871 12.1534 140.328 12.2405 140.767 12.4148C141.206 12.5852 141.6 12.8485 141.949 13.2045C142.301 13.5568 142.58 14.0019 142.784 14.5398C142.989 15.0739 143.091 15.7064 143.091 16.4375V16.9375H136.273V16.0455H142.057C142.057 15.4848 141.943 14.9811 141.716 14.5341C141.492 14.0833 141.18 13.7273 140.778 13.4659C140.381 13.2045 139.92 13.0739 139.398 13.0739C138.845 13.0739 138.358 13.2216 137.938 13.517C137.517 13.8125 137.188 14.2027 136.949 14.6875C136.714 15.1723 136.595 15.7027 136.591 16.2784V16.8125C136.591 17.5057 136.71 18.1117 136.949 18.6307C137.191 19.1458 137.534 19.5455 137.977 19.8295C138.42 20.1136 138.945 20.2557 139.551 20.2557C139.964 20.2557 140.326 20.1913 140.636 20.0625C140.951 19.9337 141.214 19.7614 141.426 19.5455C141.642 19.3258 141.805 19.0852 141.915 18.8239L142.875 19.1364C142.742 19.5038 142.525 19.8428 142.222 20.1534C141.922 20.464 141.547 20.714 141.097 20.9034C140.65 21.089 140.134 21.1818 139.551 21.1818ZM148.757 12.2727V13.1534H144.592V12.2727H148.757ZM145.893 10.1818H146.911V18.7216C146.911 19.0852 146.973 19.3712 147.098 19.5795C147.223 19.7841 147.386 19.9299 147.587 20.017C147.787 20.1004 148.001 20.142 148.229 20.142C148.361 20.142 148.475 20.1345 148.57 20.1193C148.664 20.1004 148.748 20.0814 148.82 20.0625L149.036 20.9773C148.937 21.0152 148.816 21.0492 148.672 21.0795C148.528 21.1136 148.35 21.1307 148.138 21.1307C147.767 21.1307 147.409 21.0492 147.064 20.8864C146.723 20.7235 146.443 20.4811 146.223 20.1591C146.003 19.8371 145.893 19.4375 145.893 18.9602V10.1818ZM158.963 21.1818C158.183 21.1818 157.503 20.9867 156.923 20.5966C156.348 20.2064 155.901 19.6723 155.582 18.9943C155.264 18.3163 155.105 17.5436 155.105 16.6761C155.105 15.8011 155.266 15.0227 155.588 14.3409C155.914 13.6591 156.365 13.125 156.94 12.7386C157.516 12.3485 158.185 12.1534 158.946 12.1534C159.529 12.1534 160.058 12.267 160.531 12.4943C161.005 12.7178 161.395 13.0341 161.702 13.4432C162.012 13.8485 162.207 14.322 162.287 14.8636H161.264C161.158 14.3712 160.902 13.9508 160.497 13.6023C160.096 13.25 159.584 13.0739 158.963 13.0739C158.406 13.0739 157.914 13.2254 157.486 13.5284C157.058 13.8277 156.723 14.2462 156.48 14.7841C156.241 15.3182 156.122 15.9375 156.122 16.642C156.122 17.3504 156.24 17.9773 156.474 18.5227C156.709 19.0644 157.039 19.4886 157.463 19.7955C157.891 20.1023 158.391 20.2557 158.963 20.2557C159.349 20.2557 159.702 20.1837 160.02 20.0398C160.342 19.892 160.611 19.6837 160.827 19.4148C161.046 19.1458 161.194 18.8258 161.27 18.4545H162.293C162.217 18.9811 162.029 19.4508 161.73 19.8636C161.435 20.2727 161.05 20.5947 160.577 20.8295C160.107 21.0644 159.569 21.1818 158.963 21.1818ZM165.472 9.36364V21H164.46V9.36364H165.472ZM168.159 21V12.2727H169.176V21H168.159ZM168.676 10.7727C168.468 10.7727 168.29 10.7027 168.142 10.5625C167.994 10.4186 167.92 10.2462 167.92 10.0455C167.92 9.8447 167.994 9.67424 168.142 9.53409C168.29 9.39015 168.468 9.31818 168.676 9.31818C168.884 9.31818 169.063 9.39015 169.21 9.53409C169.358 9.67424 169.432 9.8447 169.432 10.0455C169.432 10.2462 169.358 10.4186 169.21 10.5625C169.063 10.7027 168.884 10.7727 168.676 10.7727ZM172.862 15.5455V21H171.851V12.2727H172.834V13.642H172.925C173.129 13.1951 173.447 12.8371 173.879 12.5682C174.315 12.2955 174.853 12.1591 175.493 12.1591C176.08 12.1591 176.595 12.2822 177.038 12.5284C177.485 12.7708 177.832 13.1288 178.078 13.6023C178.328 14.0758 178.453 14.6572 178.453 15.3466V21H177.442V15.4091C177.442 14.6932 177.241 14.1269 176.839 13.7102C176.442 13.2936 175.908 13.0852 175.237 13.0852C174.779 13.0852 174.372 13.1837 174.016 13.3807C173.66 13.5777 173.377 13.8617 173.169 14.233C172.964 14.6004 172.862 15.0379 172.862 15.5455ZM181.128 21V12.2727H182.145V21H181.128ZM181.645 10.7727C181.437 10.7727 181.259 10.7027 181.111 10.5625C180.963 10.4186 180.889 10.2462 180.889 10.0455C180.889 9.8447 180.963 9.67424 181.111 9.53409C181.259 9.39015 181.437 9.31818 181.645 9.31818C181.853 9.31818 182.031 9.39015 182.179 9.53409C182.327 9.67424 182.401 9.8447 182.401 10.0455C182.401 10.2462 182.327 10.4186 182.179 10.5625C182.031 10.7027 181.853 10.7727 181.645 10.7727ZM188.229 21.1818C187.448 21.1818 186.768 20.9867 186.189 20.5966C185.613 20.2064 185.166 19.6723 184.848 18.9943C184.53 18.3163 184.371 17.5436 184.371 16.6761C184.371 15.8011 184.532 15.0227 184.854 14.3409C185.179 13.6591 185.63 13.125 186.206 12.7386C186.782 12.3485 187.45 12.1534 188.212 12.1534C188.795 12.1534 189.323 12.267 189.797 12.4943C190.27 12.7178 190.661 13.0341 190.967 13.4432C191.278 13.8485 191.473 14.322 191.553 14.8636H190.53C190.424 14.3712 190.168 13.9508 189.763 13.6023C189.361 13.25 188.85 13.0739 188.229 13.0739C187.672 13.0739 187.179 13.2254 186.751 13.5284C186.323 13.8277 185.988 14.2462 185.746 14.7841C185.507 15.3182 185.388 15.9375 185.388 16.642C185.388 17.3504 185.505 17.9773 185.74 18.5227C185.975 19.0644 186.304 19.4886 186.729 19.7955C187.157 20.1023 187.657 20.2557 188.229 20.2557C188.615 20.2557 188.967 20.1837 189.286 20.0398C189.607 19.892 189.876 19.6837 190.092 19.4148C190.312 19.1458 190.46 18.8258 190.536 18.4545H191.558C191.482 18.9811 191.295 19.4508 190.996 19.8636C190.7 20.2727 190.316 20.5947 189.842 20.8295C189.373 21.0644 188.835 21.1818 188.229 21.1818Z" fill="#202330"/>
<line opacity="0.6" x1="115.5" x2="115.5" y2="30" stroke="#202330"/>
</svg>
